<svg width="64" height="64" viewBox="0 0 64 64" fill="none" xmlns="http://www.w3.org/2000/svg">
  <defs>
    <linearGradient id="cloudGradient1" x1="10%" y1="10%" x2="90%" y2="90%">
      <stop offset="0%" stop-color="#FFFFFF" />
      <stop offset="100%" stop-color="#E5E7EB" />
    </linearGradient>
    <linearGradient id="cloudGradient2" x1="10%" y1="10%" x2="90%" y2="90%">
      <stop offset="0%" stop-color="#FFFFFF" />
      <stop offset="100%" stop-color="#F3F4F6" />
    </linearGradient>
    <linearGradient id="cloudGradient3" x1="10%" y1="10%" x2="90%" y2="90%">
      <stop offset="0%" stop-color="#F9FAFB" />
      <stop offset="100%" stop-color="#D1D5DB" />
    </linearGradient>
    <linearGradient id="skyGradient" x1="0%" y1="0%" x2="0%" y2="100%">
      <stop offset="0%" stop-color="#90E0EF" opacity="0.3" />
      <stop offset="100%" stop-color="#48CAE4" opacity="0.1" />
    </linearGradient>
    <filter id="cloudShadow" x="-20%" y="-20%" width="140%" height="140%">
      <feGaussianBlur stdDeviation="1.5" result="blur" />
      <feComposite in="SourceGraphic" in2="blur" operator="over" />
    </filter>
    <filter id="softGlow" x="-20%" y="-20%" width="140%" height="140%">
      <feGaussianBlur stdDeviation="1" result="blur" />
      <feComposite in="SourceGraphic" in2="blur" operator="over" />
    </filter>
  </defs>
  
  <!-- Background sky -->
  <rect width="64" height="64" fill="url(#skyGradient)" />
  
  <!-- Small distant cloud 5 -->
  <g filter="url(#cloudShadow)" opacity="0.7">
    <path d="M16 20C16 19.4 15.6 19 15 19C14.98 19 14.96 19 14.94 19C14.74 18.4 14.2 18 13.6 18C12.72 18 12 18.72 12 19.6C12 19.62 12 19.64 12 19.66C11.6 19.76 11.3 20.1 11.3 20.5C11.3 21.1 11.7 21.5 12.3 21.5H15C15.6 21.5 16 21.1 16 20Z" fill="url(#cloudGradient3)">
      <animate attributeName="d" values="
        M16 20C16 19.4 15.6 19 15 19C14.98 19 14.96 19 14.94 19C14.74 18.4 14.2 18 13.6 18C12.72 18 12 18.72 12 19.6C12 19.62 12 19.64 12 19.66C11.6 19.76 11.3 20.1 11.3 20.5C11.3 21.1 11.7 21.5 12.3 21.5H15C15.6 21.5 16 21.1 16 20Z;
        M18 20C18 19.4 17.6 19 17 19C16.98 19 16.96 19 16.94 19C16.74 18.4 16.2 18 15.6 18C14.72 18 14 18.72 14 19.6C14 19.62 14 19.64 14 19.66C13.6 19.76 13.3 20.1 13.3 20.5C13.3 21.1 13.7 21.5 14.3 21.5H17C17.6 21.5 18 21.1 18 20Z;
        M16 20C16 19.4 15.6 19 15 19C14.98 19 14.96 19 14.94 19C14.74 18.4 14.2 18 13.6 18C12.72 18 12 18.72 12 19.6C12 19.62 12 19.64 12 19.66C11.6 19.76 11.3 20.1 11.3 20.5C11.3 21.1 11.7 21.5 12.3 21.5H15C15.6 21.5 16 21.1 16 20Z" 
        dur="8s" repeatCount="indefinite" 
        calcMode="spline" 
        keySplines="0.4 0 0.6 1; 0.4 0 0.6 1" />
      <animateTransform attributeName="transform" type="translate" values="0,0; 8,0; 0,0" dur="30s" repeatCount="indefinite" calcMode="spline" keySplines="0.4 0 0.6 1; 0.4 0 0.6 1" />
    </path>
  </g>
  
  <!-- Small cloud 4 -->
  <g filter="url(#cloudShadow)">
    <path d="M46 14C46 12.9 45.1 12 44 12C43.95 12 43.9 12 43.85 12C43.45 10.8 42.3 10 41 10C39.34 10 38 11.34 38 13C38 13.05 38 13.1 38 13.15C37.2 13.35 36.5 14.05 36.5 15C36.5 16.1 37.4 17 38.5 17H44C45.1 17 46 16.1 46 14Z" fill="url(#cloudGradient2)">
      <animate attributeName="d" values="
        M46 14C46 12.9 45.1 12 44 12C43.95 12 43.9 12 43.85 12C43.45 10.8 42.3 10 41 10C39.34 10 38 11.34 38 13C38 13.05 38 13.1 38 13.15C37.2 13.35 36.5 14.05 36.5 15C36.5 16.1 37.4 17 38.5 17H44C45.1 17 46 16.1 46 14Z;
        M48 14C48 12.9 47.1 12 46 12C45.95 12 45.9 12 45.85 12C45.45 10.8 44.3 10 43 10C41.34 10 40 11.34 40 13C40 13.05 40 13.1 40 13.15C39.2 13.35 38.5 14.05 38.5 15C38.5 16.1 39.4 17 40.5 17H46C47.1 17 48 16.1 48 14Z;
        M46 14C46 12.9 45.1 12 44 12C43.95 12 43.9 12 43.85 12C43.45 10.8 42.3 10 41 10C39.34 10 38 11.34 38 13C38 13.05 38 13.1 38 13.15C37.2 13.35 36.5 14.05 36.5 15C36.5 16.1 37.4 17 38.5 17H44C45.1 17 46 16.1 46 14Z" 
        dur="10s" repeatCount="indefinite" 
        calcMode="spline" 
        keySplines="0.4 0 0.6 1; 0.4 0 0.6 1" />
      <animateTransform attributeName="transform" type="translate" values="-8,0; 0,0; -8,0" dur="25s" repeatCount="indefinite" calcMode="spline" keySplines="0.4 0 0.6 1; 0.4 0 0.6 1" />
    </path>
  </g>
  
  <!-- Medium cloud 2 -->
  <g filter="url(#cloudShadow)">
    <path d="M46 24C46 21.8 44.2 20 42 20C41.9 20 41.8 20 41.7 20C40.9 17.6 38.6 16 36 16C32.7 16 30 18.7 30 22C30 22.1 30 22.2 30 22.3C28.4 22.7 27 24.1 27 26C27 28.2 28.8 30 31 30H42C44.2 30 46 28.2 46 24Z" fill="url(#cloudGradient2)">
      <animate attributeName="d" values="
        M46 24C46 21.8 44.2 20 42 20C41.9 20 41.8 20 41.7 20C40.9 17.6 38.6 16 36 16C32.7 16 30 18.7 30 22C30 22.1 30 22.2 30 22.3C28.4 22.7 27 24.1 27 26C27 28.2 28.8 30 31 30H42C44.2 30 46 28.2 46 24Z;
        M48 24C48 21.8 46.2 20 44 20C43.9 20 43.8 20 43.7 20C42.9 17.6 40.6 16 38 16C34.7 16 32 18.7 32 22C32 22.1 32 22.2 32 22.3C30.4 22.7 29 24.1 29 26C29 28.2 30.8 30 33 30H44C46.2 30 48 28.2 48 24Z;
        M46 24C46 21.8 44.2 20 42 20C41.9 20 41.8 20 41.7 20C40.9 17.6 38.6 16 36 16C32.7 16 30 18.7 30 22C30 22.1 30 22.2 30 22.3C28.4 22.7 27 24.1 27 26C27 28.2 28.8 30 31 30H42C44.2 30 46 28.2 46 24Z" 
        dur="15s" repeatCount="indefinite" 
        calcMode="spline" 
        keySplines="0.4 0 0.6 1; 0.4 0 0.6 1" />
      <animateTransform attributeName="transform" type="translate" values="-5,0; 0,0; -5,0" dur="20s" repeatCount="indefinite" calcMode="spline" keySplines="0.4 0 0.6 1; 0.4 0 0.6 1" />
    </path>
  </g>
  
  <!-- Small cloud 3 -->
  <g filter="url(#cloudShadow)">
    <path d="M28 42C28 40.9 27.1 40 26 40C25.95 40 25.9 40 25.85 40C25.45 38.8 24.3 38 23 38C21.34 38 20 39.34 20 41C20 41.05 20 41.1 20 41.15C19.2 41.35 18.5 42.05 18.5 43C18.5 44.1 19.4 45 20.5 45H26C27.1 45 28 44.1 28 42Z" fill="url(#cloudGradient3)">
      <animate attributeName="d" values="
        M28 42C28 40.9 27.1 40 26 40C25.95 40 25.9 40 25.85 40C25.45 38.8 24.3 38 23 38C21.34 38 20 39.34 20 41C20 41.05 20 41.1 20 41.15C19.2 41.35 18.5 42.05 18.5 43C18.5 44.1 19.4 45 20.5 45H26C27.1 45 28 44.1 28 42Z;
        M30 42C30 40.9 29.1 40 28 40C27.95 40 27.9 40 27.85 40C27.45 38.8 26.3 38 25 38C23.34 38 22 39.34 22 41C22 41.05 22 41.1 22 41.15C21.2 41.35 20.5 42.05 20.5 43C20.5 44.1 21.4 45 22.5 45H28C29.1 45 30 44.1 30 42Z;
        M28 42C28 40.9 27.1 40 26 40C25.95 40 25.9 40 25.85 40C25.45 38.8 24.3 38 23 38C21.34 38 20 39.34 20 41C20 41.05 20 41.1 20 41.15C19.2 41.35 18.5 42.05 18.5 43C18.5 44.1 19.4 45 20.5 45H26C27.1 45 28 44.1 28 42Z" 
        dur="12s" repeatCount="indefinite" 
        calcMode="spline" 
        keySplines="0.4 0 0.6 1; 0.4 0 0.6 1" />
      <animateTransform attributeName="transform" type="translate" values="0,0; 6,0; 0,0" dur="18s" repeatCount="indefinite" calcMode="spline" keySplines="0.4 0 0.6 1; 0.4 0 0.6 1" />
    </path>
  </g>
  
  <!-- Large cloud 1 -->
  <g filter="url(#softGlow)">
    <path d="M54 38C54 33.6 50.4 30 46 30C45.8 30 45.6 30 45.4 30C44 25.4 39.8 22 35 22C28.4 22 23 27.4 23 34C23 34.2 23 34.4 23 34.6C19.8 35.4 17 38.2 17 42C17 46.4 20.6 50 25 50H46C50.4 50 54 46.4 54 38Z" fill="url(#cloudGradient1)">
      <animate attributeName="d" values="
        M54 38C54 33.6 50.4 30 46 30C45.8 30 45.6 30 45.4 30C44 25.4 39.8 22 35 22C28.4 22 23 27.4 23 34C23 34.2 23 34.4 23 34.6C19.8 35.4 17 38.2 17 42C17 46.4 20.6 50 25 50H46C50.4 50 54 46.4 54 38Z;
        M56 38C56 33.6 52.4 30 48 30C47.8 30 47.6 30 47.4 30C46 25.4 41.8 22 37 22C30.4 22 25 27.4 25 34C25 34.2 25 34.4 25 34.6C21.8 35.4 19 38.2 19 42C19 46.4 22.6 50 27 50H48C52.4 50 56 46.4 56 38Z;
        M54 38C54 33.6 50.4 30 46 30C45.8 30 45.6 30 45.4 30C44 25.4 39.8 22 35 22C28.4 22 23 27.4 23 34C23 34.2 23 34.4 23 34.6C19.8 35.4 17 38.2 17 42C17 46.4 20.6 50 25 50H46C50.4 50 54 46.4 54 38Z" 
        dur="20s" repeatCount="indefinite" 
        calcMode="spline" 
        keySplines="0.4 0 0.6 1; 0.4 0 0.6 1" />
    </path>
  </g>
  
  <!-- Subtle cloud highlights -->
  <ellipse cx="36" cy="32" rx="5" ry="3" fill="white" opacity="0.15">
    <animateTransform attributeName="transform" type="translate" values="0,0; -2,-1; 0,0" dur="10s" repeatCount="indefinite" calcMode="spline" keySplines="0.4 0 0.6 1; 0.4 0 0.6 1" />
  </ellipse>
  
  <ellipse cx="46" cy="38" rx="3" ry="2" fill="white" opacity="0.2">
    <animateTransform attributeName="transform" type="translate" values="0,0; 2,-1; 0,0" dur="15s" repeatCount="indefinite" calcMode="spline" keySplines="0.4 0 0.6 1; 0.4 0 0.6 1" />
  </ellipse>
  
  <ellipse cx="28" cy="42" rx="2" ry="1.5" fill="white" opacity="0.15">
    <animateTransform attributeName="transform" type="translate" values="0,0; 1,0; 0,0" dur="8s" repeatCount="indefinite" calcMode="spline" keySplines="0.4 0 0.6 1; 0.4 0 0.6 1" />
  </ellipse>
</svg> 