<svg width="64" height="64" viewBox="0 0 64 64" fill="none" xmlns="http://www.w3.org/2000/svg">
  <defs>
    <linearGradient id="sunGradient" x1="10%" y1="10%" x2="90%" y2="90%">
      <stop offset="0%" stop-color="#FEF08A" />
      <stop offset="100%" stop-color="#FACC15" />
    </linearGradient>
    <linearGradient id="cloudGradient" x1="10%" y1="0%" x2="90%" y2="100%">
      <stop offset="0%" stop-color="#F1F5F9" />
      <stop offset="100%" stop-color="#94A3B8" />
    </linearGradient>
    <filter id="glow" x="-20%" y="-20%" width="140%" height="140%">
      <feGaussianBlur stdDeviation="1.5" result="blur" />
      <feComposite in="SourceGraphic" in2="blur" operator="over" />
    </filter>
    <filter id="cloudShadow" x="-20%" y="-20%" width="140%" height="140%">
      <feDropShadow dx="0" dy="2" stdDeviation="2" flood-color="#000000" flood-opacity="0.15" />
    </filter>
  </defs>
  
  <!-- Backdrop -->
  <rect width="64" height="64" rx="32" fill="#E0F2FE" opacity="0.1" />
  
  <!-- Sun -->
  <g filter="url(#glow)">
    <circle cx="24" cy="22" r="10" fill="url(#sunGradient)">
      <animate attributeName="opacity" values="0.9;1;0.9" dur="4s" repeatCount="indefinite" />
    </circle>
    
    <!-- Sun rays -->
    <path d="M24 10V12" stroke="url(#sunGradient)" stroke-width="2" stroke-linecap="round" />
    <path d="M24 32V34" stroke="url(#sunGradient)" stroke-width="2" stroke-linecap="round" />
    <path d="M12 22H14" stroke="url(#sunGradient)" stroke-width="2" stroke-linecap="round" />
    <path d="M34 22H36" stroke="url(#sunGradient)" stroke-width="2" stroke-linecap="round" />
    
    <path d="M16 14L18 16" stroke="url(#sunGradient)" stroke-width="2" stroke-linecap="round" />
    <path d="M30 28L32 30" stroke="url(#sunGradient)" stroke-width="2" stroke-linecap="round" />
    <path d="M16 30L18 28" stroke="url(#sunGradient)" stroke-width="2" stroke-linecap="round" />
    <path d="M30 16L32 14" stroke="url(#sunGradient)" stroke-width="2" stroke-linecap="round" />
  </g>
  
  <!-- Cloud -->
  <path d="M48 34C48 28.4772 43.5228 24 38 24C35.2721 24 32.8126 25.1242 31.062 26.9375C29.8855 26.3308 28.5406 26 27.125 26C22.1967 26 18.2085 29.9882 18.2085 34.9165C18.2085 35.6811 18.3036 36.4231 18.4826 37.1318C16.3983 38.2635 15 40.4547 15 43C15 46.866 18.134 50 22 50H46C50.4183 50 54 46.4183 54 42C54 37.5817 50.4183 34 46 34H48Z" fill="url(#cloudGradient)" filter="url(#cloudShadow)" />
  
  <!-- Cloud highlight -->
  <path d="M24 40C25 39 27 38.5 29 39.5C31 40.5 30.5 42.5 28.5 43C26.5 43.5 23 43 21 41C22 42 23.5 42.5 25.5 42C27.5 41.5 27.5 40 27 39C26.5 38 23 41 24 40Z" fill="white" opacity="0.7" />
  
  <!-- Question mark for default -->
  <path d="M36 36C36 36 39 37 39 40C39 42 37 43 35 43C33 43 32 41 32 40" stroke="#4361EE" stroke-width="2.5" stroke-linecap="round" stroke-linejoin="round"/>
  <circle cx="35" cy="47" r="1.25" fill="#4361EE" />
  
  <!-- Animated pulse ring -->
  <circle cx="32" cy="32" r="27" stroke="#4361EE" stroke-width="1" stroke-dasharray="3 3" opacity="0.4">
    <animate attributeName="r" values="27;29;27" dur="5s" repeatCount="indefinite" />
    <animate attributeName="opacity" values="0.2;0.4;0.2" dur="5s" repeatCount="indefinite" />
    <animate attributeName="stroke-dashoffset" values="0;12;0" dur="20s" repeatCount="indefinite" />
  </circle>
</svg> 