<svg width="64" height="64" viewBox="0 0 64 64" fill="none" xmlns="http://www.w3.org/2000/svg">
  <defs>
    <linearGradient id="moonGradient" x1="0%" y1="0%" x2="100%" y2="100%">
      <stop offset="0%" stop-color="#E0E7FF" />
      <stop offset="100%" stop-color="#9DA8D6" />
    </linearGradient>
    <linearGradient id="moonHighlight" x1="30%" y1="20%" x2="80%" y2="90%">
      <stop offset="0%" stop-color="#FFFFFF" stop-opacity="0.8" />
      <stop offset="100%" stop-color="#FFFFFF" stop-opacity="0" />
    </linearGradient>
    <filter id="moonGlow" x="-50%" y="-50%" width="200%" height="200%">
      <feGaussianBlur stdDeviation="3" result="blur" />
      <feComposite in="SourceGraphic" in2="blur" operator="over" />
    </filter>
    <filter id="starGlow" x="-100%" y="-100%" width="300%" height="300%">
      <feGaussianBlur stdDeviation="1" result="blur" />
      <feComposite in="SourceGraphic" in2="blur" operator="over" />
    </filter>
  </defs>
  
  <!-- Background Glow -->
  <circle cx="32" cy="32" r="20" fill="#7986CB" opacity="0.2" filter="url(#moonGlow)" />
  
  <!-- Main Moon Shape -->
  <path d="M42 20.5C37.5 15 27 15 21 21C15 27 13 39 21 47C29 55 42 51 47 43C38 47 28 43 24 35C20 27 24 19 42 20.5Z" fill="url(#moonGradient)" filter="url(#moonGlow)" />
  
  <!-- Highlight -->
  <path d="M32 26C29 28 27 32 28 36C29 40 33 43 37 43C34.5 45 30.5 45.5 27 44C20 41 18 33 22 27C26 21 33 19 38 22C35 22 33.5 25 32 26Z" fill="url(#moonHighlight)" opacity="0.6" />
  
  <!-- Craters -->
  <circle cx="28" cy="38" r="2.5" fill="#9DA8D6" opacity="0.6" />
  <circle cx="36" cy="32" r="1.5" fill="#9DA8D6" opacity="0.5" />
  <circle cx="24" cy="30" r="2" fill="#9DA8D6" opacity="0.7" />
  
  <!-- Stars -->
  <g filter="url(#starGlow)">
    <circle cx="12" cy="15" r="1" fill="white">
      <animate attributeName="opacity" values="0.3;1;0.3" dur="2s" repeatCount="indefinite" />
    </circle>
    <circle cx="52" cy="12" r="1.2" fill="white">
      <animate attributeName="opacity" values="0.3;1;0.3" dur="3s" repeatCount="indefinite" />
    </circle>
    <circle cx="16" cy="48" r="0.8" fill="white">
      <animate attributeName="opacity" values="0.3;1;0.3" dur="2.5s" repeatCount="indefinite" />
    </circle>
    <circle cx="47" cy="52" r="1" fill="white">
      <animate attributeName="opacity" values="0.3;1;0.3" dur="4s" repeatCount="indefinite" />
    </circle>
    <circle cx="56" cy="40" r="1.3" fill="white">
      <animate attributeName="opacity" values="0.3;1;0.3" dur="3.5s" repeatCount="indefinite" />
    </circle>
    <circle cx="7" cy="34" r="1.1" fill="white">
      <animate attributeName="opacity" values="0.3;1;0.3" dur="2.2s" repeatCount="indefinite" />
    </circle>
  </g>
</svg> 