<svg width="64" height="64" viewBox="0 0 64 64" fill="none" xmlns="http://www.w3.org/2000/svg">
  <defs>
    <linearGradient id="cloudGradient" x1="0%" y1="0%" x2="100%" y2="100%">
      <stop offset="0%" stop-color="#F1F5F9" />
      <stop offset="100%" stop-color="#94A3B8" />
    </linearGradient>
    <linearGradient id="dropGradient" x1="30%" y1="0%" x2="70%" y2="100%">
      <stop offset="0%" stop-color="#7DD3FC" />
      <stop offset="100%" stop-color="#0284C7" />
    </linearGradient>
    <filter id="cloudShadow" x="-20%" y="-20%" width="140%" height="140%">
      <feDropShadow dx="0" dy="2" stdDeviation="2" flood-color="#000000" flood-opacity="0.2" />
    </filter>
    <filter id="dropShadow" x="-30%" y="-30%" width="160%" height="160%">
      <feGaussianBlur stdDeviation="0.5" result="blur" />
    </filter>
    <filter id="dropGlow" x="-50%" y="-50%" width="200%" height="200%">
      <feGaussianBlur stdDeviation="1" result="blur" />
      <feComposite in="SourceGraphic" in2="blur" operator="over" />
    </filter>
  </defs>
  
  <!-- Cloud -->
  <path d="M48 22C48 16.4772 43.5228 12 38 12C33.5917 12 29.8357 14.8547 28.3917 18.8131C27.2768 18.2854 26.0402 18 24.75 18C20.4624 18 17 21.4624 17 25.75C17 26.0867 17.0233 26.4179 17.0688 26.7419C15.239 28.1303 14 30.3112 14 32.75C14 36.8571 17.3151 40.1722 21.4222 40.1722H47.5778C51.6849 40.1722 55 36.8571 55 32.75C55 28.6429 51.6849 25.3278 47.5778 25.3278C47.8607 24.2529 48 23.1363 48 22Z" fill="url(#cloudGradient)" filter="url(#cloudShadow)" />
  
  <!-- Cloud highlight -->
  <path d="M22 28.5C23 27.5 25 27 27 28C29 29 28.5 31 26.5 31.5C24.5 32 21 31.5 19 29.5C20 30.5 21.5 31 23.5 30.5C25.5 30 25.5 28.5 25 27.5C24.5 26.5 21 29.5 22 28.5Z" fill="white" opacity="0.7" />
  
  <!-- Rain drops with animations -->
  <g filter="url(#dropShadow)">
    <!-- Drop 1 -->
    <path d="M20 44L18 52" stroke="url(#dropGradient)" stroke-width="2" stroke-linecap="round" filter="url(#dropGlow)">
      <animate attributeName="opacity" values="0;1;0" dur="1.5s" repeatCount="indefinite" begin="0s" />
      <animate attributeName="stroke-width" values="3;2;3" dur="1.5s" repeatCount="indefinite" begin="0s" />
    </path>
    
    <!-- Drop 2 -->
    <path d="M28 42L26 54" stroke="url(#dropGradient)" stroke-width="2.5" stroke-linecap="round" filter="url(#dropGlow)">
      <animate attributeName="opacity" values="0;1;0" dur="1.8s" repeatCount="indefinite" begin="0.3s" />
      <animate attributeName="stroke-width" values="3.5;2.5;3.5" dur="1.8s" repeatCount="indefinite" begin="0.3s" />
    </path>
    
    <!-- Drop 3 -->
    <path d="M36 40L34 51" stroke="url(#dropGradient)" stroke-width="2" stroke-linecap="round" filter="url(#dropGlow)">
      <animate attributeName="opacity" values="0;1;0" dur="1.6s" repeatCount="indefinite" begin="0.6s" />
      <animate attributeName="stroke-width" values="3;2;3" dur="1.6s" repeatCount="indefinite" begin="0.6s" />
    </path>
    
    <!-- Drop 4 -->
    <path d="M44 43L42 53" stroke="url(#dropGradient)" stroke-width="2.2" stroke-linecap="round" filter="url(#dropGlow)">
      <animate attributeName="opacity" values="0;1;0" dur="1.7s" repeatCount="indefinite" begin="0.9s" />
      <animate attributeName="stroke-width" values="3.2;2.2;3.2" dur="1.7s" repeatCount="indefinite" begin="0.9s" />
    </path>
  </g>
  
  <!-- Rain splash effects -->
  <g filter="url(#dropShadow)">
    <circle cx="18" cy="52" r="1" fill="#7DD3FC" opacity="0">
      <animate attributeName="r" values="0;2;0" dur="1.5s" repeatCount="indefinite" begin="0.75s" />
      <animate attributeName="opacity" values="0;0.7;0" dur="1.5s" repeatCount="indefinite" begin="0.75s" />
    </circle>
    
    <circle cx="26" cy="54" r="1" fill="#7DD3FC" opacity="0">
      <animate attributeName="r" values="0;2;0" dur="1.8s" repeatCount="indefinite" begin="1.1s" />
      <animate attributeName="opacity" values="0;0.7;0" dur="1.8s" repeatCount="indefinite" begin="1.1s" />
    </circle>
    
    <circle cx="34" cy="51" r="1" fill="#7DD3FC" opacity="0">
      <animate attributeName="r" values="0;2;0" dur="1.6s" repeatCount="indefinite" begin="1.4s" />
      <animate attributeName="opacity" values="0;0.7;0" dur="1.6s" repeatCount="indefinite" begin="1.4s" />
    </circle>
    
    <circle cx="42" cy="53" r="1" fill="#7DD3FC" opacity="0">
      <animate attributeName="r" values="0;2;0" dur="1.7s" repeatCount="indefinite" begin="1.6s" />
      <animate attributeName="opacity" values="0;0.7;0" dur="1.7s" repeatCount="indefinite" begin="1.6s" />
    </circle>
  </g>
</svg> 